<svg id="visual" viewBox="0 0 900 600" width="900" height="600" xmlns="http://www.w3.org/2000/svg" xmlns:xlink="http://www.w3.org/1999/xlink" version="1.1"><rect x="0" y="0" width="900" height="600" fill="#fff"></rect><g transform="translate(419.7832346595254 301.44109954309386)"><path d="M100.9 -121.6C137.5 -89.5 178.5 -64.1 205.8 -20C233 24.2 246.4 87.1 222.9 129.6C199.4 172 139 194.1 86.9 193.4C34.8 192.6 -9.1 169.1 -55 152C-100.9 134.9 -148.7 124.2 -166.2 95.3C-183.6 66.4 -170.6 19.3 -157 -22.5C-143.4 -64.2 -129.2 -100.7 -103 -134.5C-76.7 -168.4 -38.4 -199.7 -3.1 -196C32.1 -192.3 64.3 -153.6 100.9 -121.6" fill="none" stroke="#009be580" stroke-width="6"></path></g></svg>