<svg id="visual" viewBox="0 0 900 200" width="900" height="200" xmlns="http://www.w3.org/2000/svg" xmlns:xlink="http://www.w3.org/1999/xlink" version="1.1"><rect x="0" y="0" width="900" height="200" fill="#FFFFFF"></rect><path d="M0 52L16.7 52.5C33.3 53 66.7 54 100 57C133.3 60 166.7 65 200 68.3C233.3 71.7 266.7 73.3 300 70.7C333.3 68 366.7 61 400 58.3C433.3 55.7 466.7 57.3 500 57C533.3 56.7 566.7 54.3 600 53.2C633.3 52 666.7 52 700 53.8C733.3 55.7 766.7 59.3 800 59C833.3 58.7 866.7 54.3 883.3 52.2L900 50L900 0L883.3 0C866.7 0 833.3 0 800 0C766.7 0 733.3 0 700 0C666.7 0 633.3 0 600 0C566.7 0 533.3 0 500 0C466.7 0 433.3 0 400 0C366.7 0 333.3 0 300 0C266.7 0 233.3 0 200 0C166.7 0 133.3 0 100 0C66.7 0 33.3 0 16.7 0L0 0Z" fill="#009be5"></path><path d="M0 43L16.7 41.3C33.3 39.7 66.7 36.3 100 35.3C133.3 34.3 166.7 35.7 200 37.5C233.3 39.3 266.7 41.7 300 39.5C333.3 37.3 366.7 30.7 400 29.8C433.3 29 466.7 34 500 36.7C533.3 39.3 566.7 39.7 600 38.7C633.3 37.7 666.7 35.3 700 35.7C733.3 36 766.7 39 800 38C833.3 37 866.7 32 883.3 29.5L900 27L900 0L883.3 0C866.7 0 833.3 0 800 0C766.7 0 733.3 0 700 0C666.7 0 633.3 0 600 0C566.7 0 533.3 0 500 0C466.7 0 433.3 0 400 0C366.7 0 333.3 0 300 0C266.7 0 233.3 0 200 0C166.7 0 133.3 0 100 0C66.7 0 33.3 0 16.7 0L0 0Z" fill="#daa520"></path></svg>