<svg id="visual" viewBox="0 0 900 200" width="900" height="200" xmlns="http://www.w3.org/2000/svg" xmlns:xlink="http://www.w3.org/1999/xlink" version="1.1"><rect x="0" y="0" width="900" height="200" fill="#FFFFFF"></rect><path d="M0 136L12.5 139C25 142 50 148 75 146.3C100 144.7 125 135.3 150 132.7C175 130 200 134 225 133.7C250 133.3 275 128.7 300 129.7C325 130.7 350 137.3 375 140C400 142.7 425 141.3 450 143C475 144.7 500 149.3 525 151.7C550 154 575 154 600 150C625 146 650 138 675 137.3C700 136.7 725 143.3 750 147.3C775 151.3 800 152.7 825 149.2C850 145.7 875 137.3 887.5 133.2L900 129L900 201L887.5 201C875 201 850 201 825 201C800 201 775 201 750 201C725 201 700 201 675 201C650 201 625 201 600 201C575 201 550 201 525 201C500 201 475 201 450 201C425 201 400 201 375 201C350 201 325 201 300 201C275 201 250 201 225 201C200 201 175 201 150 201C125 201 100 201 75 201C50 201 25 201 12.5 201L0 201Z" fill="#009be5"></path><path d="M0 172L12.5 169.2C25 166.3 50 160.7 75 159.7C100 158.7 125 162.3 150 166C175 169.7 200 173.3 225 171.3C250 169.3 275 161.7 300 159C325 156.3 350 158.7 375 161.7C400 164.7 425 168.3 450 169.2C475 170 500 168 525 166C550 164 575 162 600 164.2C625 166.3 650 172.7 675 171.3C700 170 725 161 750 160.3C775 159.7 800 167.3 825 168.5C850 169.7 875 164.3 887.5 161.7L900 159L900 201L887.5 201C875 201 850 201 825 201C800 201 775 201 750 201C725 201 700 201 675 201C650 201 625 201 600 201C575 201 550 201 525 201C500 201 475 201 450 201C425 201 400 201 375 201C350 201 325 201 300 201C275 201 250 201 225 201C200 201 175 201 150 201C125 201 100 201 75 201C50 201 25 201 12.5 201L0 201Z" fill="#daa520"></path></svg>